<?xml version="1.0" encoding="UTF-8"?>
<svg width="174px" height="31px" viewBox="0 0 174 31" version="1.1" xmlns="http://www.w3.org/2000/svg" xmlns:xlink="http://www.w3.org/1999/xlink">
    <!-- Generator: Sketch 50.2 (55047) - http://www.bohemiancoding.com/sketch -->
    <title>Untitled 9</title>
    <desc>Created with Sketch.</desc>
    <defs>
        <text id="text-1" font-family="Athelas-Regular, Athelas" font-size="20" font-weight="normal">
            <tspan x="51.46" y="20">E M A Z E M I</tspan>
        </text>
        <filter x="-5.9%" y="-21.7%" width="111.8%" height="160.9%" filterUnits="objectBoundingBox" id="filter-2">
            <feOffset dx="0" dy="2" in="SourceAlpha" result="shadowOffsetOuter1"></feOffset>
            <feGaussianBlur stdDeviation="2" in="shadowOffsetOuter1" result="shadowBlurOuter1"></feGaussianBlur>
            <feColorMatrix values="0 0 0 0 0   0 0 0 0 0   0 0 0 0 0  0 0 0 0.5 0" type="matrix" in="shadowBlurOuter1"></feColorMatrix>
        </filter>
        <path d="M19.4367607,4 L32.8152866,4 L32.8152866,4.97634213 L20.1145708,22.4805003 L20.1138192,22.4977252 L25.9017288,22.4977252 C27.8016474,22.4977252 29.2089733,21.9875696 30.1237489,20.9672429 C30.9329734,20.0524674 31.5838617,18.4516341 32.0764331,16.1646952 L33,16.1646952 L32.6569609,23.500455 L20.0700637,23.500455 L4,23.500455 L4,22.4977252 L5.31938126,22.4977252 C6.26934051,22.4977252 6.74431301,22.1458937 6.74431301,21.4422202 L6.74431301,5.97907188 C6.74431301,5.32817388 6.35729838,5.00272975 5.58325751,5.00272975 L4,5.00272975 L4,4 L19.4367607,4 Z M19.8270818,10.4793306 L19.8325751,10.5705187 L18.9353958,10.5705187 C18.5835591,8.61782463 18.047016,7.20170291 17.3257507,6.32211101 C16.6044853,5.44251911 15.5929698,5.00272975 14.2911738,5.00272975 L10.4649682,5.00272975 C9.83166198,5.00272975 9.51501365,5.32817388 9.51501365,5.97907188 L9.51501365,12.9190173 L11.2038217,12.9190173 C12.1713727,12.9190173 12.9278104,12.5935732 13.4731574,11.9426752 C14.0185044,11.2917772 14.2911738,10.3154448 14.2911738,9.01364877 L15.2147407,9.01364877 L15.2147407,18.0646042 L14.2911738,18.0646042 C14.2911738,15.2850938 13.2180878,13.8953594 11.0718835,13.8953594 L9.51501365,13.8953594 L9.51501365,21.6269336 C9.51501365,22.2074642 9.92841564,22.4977252 10.755232,22.4977252 L13.7898089,22.4977252 C16.738082,22.4977252 18.5559355,20.7087328 19.24341,17.3361472 C19.3582023,16.5363076 19.4218402,16.126615 19.4343237,16.1070692 C19.4346315,16.1065873 19.4353207,16.1056965 19.4363916,16.1043968 C19.4365147,16.1033179 19.4366377,16.1022388 19.4367607,16.1011595 L19.4388523,16.1014737 C19.5827656,15.9330993 23.0212555,12.2335179 29.7543221,5.00272975 L25.7697907,5.00272975 C24.0106069,5.00272975 22.7000346,5.43812121 21.8380346,6.3089172 C20.9769803,7.17875771 20.1270239,8.39012804 19.8270818,10.4793306 Z" id="path-3"></path>
        <filter x="-24.1%" y="-25.6%" width="148.3%" height="171.8%" filterUnits="objectBoundingBox" id="filter-4">
            <feOffset dx="0" dy="2" in="SourceAlpha" result="shadowOffsetOuter1"></feOffset>
            <feGaussianBlur stdDeviation="2" in="shadowOffsetOuter1" result="shadowBlurOuter1"></feGaussianBlur>
            <feColorMatrix values="0 0 0 0 0   0 0 0 0 0   0 0 0 0 0  0 0 0 0.5 0" type="matrix" in="shadowBlurOuter1"></feColorMatrix>
        </filter>
    </defs>
    <g id="Page-1" stroke="none" stroke-width="1" fill="none" fill-rule="evenodd">
        <g id="E-M-A-Z-E-M-I" fill="#000000">
            <use fill-opacity="1" filter="url(#filter-2)" xlink:href="#text-1"></use>
            <use fill-rule="evenodd" xlink:href="#text-1"></use>
            <use fill-opacity="1" xlink:href="#text-1"></use>
        </g>
        <g id="Combined-Shape">
            <use fill="black" fill-opacity="1" filter="url(#filter-4)" xlink:href="#path-3"></use>
            <use fill="#000000" fill-rule="evenodd" xlink:href="#path-3"></use>
        </g>
    </g>
</svg>