<?xml version="1.0" encoding="UTF-8"?>
<svg width="24px" height="24px" viewBox="0 0 24 24" version="1.1" xmlns="http://www.w3.org/2000/svg" xmlns:xlink="http://www.w3.org/1999/xlink">
    <!-- Generator: Sketch 50.2 (55047) - http://www.bohemiancoding.com/sketch -->
    <title>Untitled 9</title>
    <desc>Created with Sketch.</desc>
    <defs></defs>
    <g id="Page-1" stroke="none" stroke-width="1" fill="none" fill-rule="evenodd">
        <path d="M21.7281952,11.9997188 C21.7281952,11.4694219 21.6839226,10.9384219 21.5938888,10.4147344 C22.3929565,10.08 23.1769944,9.69403125 23.9400005,9.25898438 C23.783942,8.60639062 23.5708381,7.96696875 23.3052505,7.35028125 C22.4251765,7.43526562 21.5585956,7.5721875 20.7107897,7.7596875 C20.4684428,7.28432813 20.1855688,6.8295 19.8652407,6.4010625 C19.5456328,5.971125 19.1892432,5.56828125 18.8005855,5.1969375 C19.244752,4.46671875 19.6461345,3.705 20.0010356,2.9146875 C19.4833535,2.47814062 18.9281213,2.08340625 18.3429259,1.73620313 C17.68191,2.30967188 17.0621896,2.91689062 16.4874621,3.5540625 C16.0065138,3.30796875 15.503093,3.1014375 14.9861312,2.93807813 C14.4691694,2.77401563 13.9379942,2.65317187 13.4000485,2.57554688 C13.3189941,1.73034375 13.1831992,0.883640625 12.993384,0.040640625 C12.3113843,-0.013546875 11.6286163,-0.013546875 10.9466165,0.040640625 C10.7568014,0.883640625 10.6210064,1.73034375 10.5399521,2.57554688 C10.0020063,2.65317187 9.47078316,2.77401563 8.95386934,2.93807813 C8.4369075,3.10139063 7.93348674,3.30796875 7.4525384,3.5540625 C6.8778109,2.91684375 6.25809053,2.30967188 5.59784297,1.73620313 C5.01187925,2.08335938 4.45664706,2.47814062 3.93896495,2.9146875 C4.2945863,3.70495313 4.69524853,4.46667188 5.13941507,5.1969375 C4.75152563,5.56828125 4.39436771,5.971125 4.07475987,6.4010625 C3.75515203,6.82954688 3.47150968,7.284375 3.22921082,7.7596875 C2.38140493,7.5721875 1.514824,7.43521875 0.634750006,7.35028125 C0.369162421,7.96696875 0.156058516,8.60639062 8.52971113e-17,9.25898438 C0.763774385,9.69403125 1.5470921,10.0800469 2.3461117,10.4147344 C2.25607794,10.9384219 2.21180534,11.4694219 2.21180534,11.9997187 C2.21180534,12.5307187 2.25607794,13.0610156 2.3461117,13.5847031 C1.54704408,13.9201406 0.763774385,14.3054062 0,14.7412031 C0.156058516,15.3930469 0.369162421,16.0324687 0.634750006,16.6499063 C1.514824,16.5642188 2.38140493,16.42725 3.22921082,16.23975 C3.47155769,16.7151094 3.75515203,17.1699375 4.07475987,17.599125 C4.39436771,18.0283125 4.75152563,18.4319063 5.13941507,18.8025 C4.69524853,19.5327188 4.2945863,20.2951875 3.93896495,21.08475 C4.45664706,21.5212969 5.01187925,21.9160312 5.59784297,22.2632344 C6.25809053,21.6904688 6.8778109,21.0832969 7.4525384,20.445375 C7.93348674,20.6914687 8.4369075,20.898 8.95386934,21.0620625 C9.47083118,21.226125 10.0020063,21.3469687 10.5399521,21.4245937 C10.6210064,22.2697969 10.7568014,23.1165 10.9466165,23.9587969 C11.6286163,24.0137344 12.3113843,24.0137344 12.993384,23.9587969 C13.1831992,23.1165 13.3189941,22.2698437 13.4000485,21.4245937 C13.9379942,21.3469687 14.4692174,21.226125 14.9861312,21.0620625 C15.503045,20.898 16.0065138,20.6914687 16.4874621,20.445375 C17.0621896,21.0832969 17.68191,21.6905156 18.3429259,22.2632344 C18.9281693,21.9160781 19.4833535,21.5212969 20.0010356,21.08475 C19.6461345,20.2951875 19.244752,19.5327656 18.8005855,18.8025 C19.1892432,18.4319063 19.5456328,18.0283125 19.8652407,17.599125 C20.1856168,17.1699375 20.4684909,16.7151094 20.7107897,16.23975 C21.5585956,16.42725 22.4251765,16.5642188 23.3052505,16.6499063 C23.5708381,16.0324687 23.783942,15.3930469 23.9400005,14.7412031 C23.1769464,14.3054062 22.3929084,13.9201406 21.5938888,13.5847031 C21.6839226,13.0610156 21.7281952,12.5307188 21.7281952,11.9997188 Z M16.297647,17.8188281 C15.6734129,18.2619375 14.9786404,18.6083906 14.2471341,18.8405625 C13.5156278,19.0720313 12.7473397,19.1899219 11.9700243,19.1899219 C11.1934771,19.1899219 10.4244207,19.0719844 9.69291445,18.8405625 C8.96140817,18.6083906 8.26663565,18.2619375 7.64240159,17.8188281 C7.01739924,17.3749688 6.46370363,16.8344531 6.00978943,16.2243281 C5.55510694,15.6149531 5.20025389,14.9374688 4.96314098,14.222625 C4.7253078,13.5085313 4.6044945,12.7585313 4.60526279,11.9997188 C4.6044945,11.2416563 4.7253078,10.4916563 4.96314098,9.7768125 C5.20025389,9.06271875 5.55510694,8.38448438 6.00978943,7.77510938 C6.46370363,7.16573438 7.01739924,6.62521875 7.64240159,6.18135938 C8.26663565,5.7375 8.96063988,5.39109375 9.69291445,5.159625 C10.4244207,4.92745313 11.1934771,4.81026563 11.9700243,4.81026563 C12.7473397,4.81026563 13.5156278,4.92745313 14.2471341,5.159625 C14.9794087,5.39109375 15.6734129,5.7375 16.297647,6.18135938 C16.9226493,6.62521875 17.4763449,7.16573438 17.9302591,7.77510938 C18.3849416,8.38448438 18.7397947,9.06271875 18.9769076,9.7768125 C19.2147408,10.4916563 19.3355541,11.2416563 19.3347858,11.9997188 C19.3355541,12.7585313 19.2147408,13.5085313 18.9769076,14.222625 C18.7397947,14.9374687 18.3849416,15.6149531 17.9302591,16.2243281 C17.4763449,16.8344531 16.9226493,17.3749688 16.297647,17.8188281 Z" id="Shape" fill="#4B4B4B" fill-rule="nonzero"></path>
    </g>
</svg>