<?xml version="1.0" encoding="UTF-8"?>
<svg width="25px" height="24px" viewBox="0 0 25 24" version="1.1" xmlns="http://www.w3.org/2000/svg" xmlns:xlink="http://www.w3.org/1999/xlink">
    <!-- Generator: Sketch 50.2 (55047) - http://www.bohemiancoding.com/sketch -->
    <title>Untitled 8</title>
    <desc>Created with Sketch.</desc>
    <defs></defs>
    <g id="Page-1" stroke="none" stroke-width="1" fill="none" fill-rule="evenodd">
        <g id="Group-2" transform="translate(4.000000, 1.000000)" fill-rule="nonzero" stroke="#000000">
            <g id="シンプルな人のピクトグラム">
                <path d="M9.00044468,4.4 C11.6323351,4.4 13.7647059,3.41464821 13.7647059,2.20025095 C13.7647059,0.984530513 11.6324339,0 9.00044468,0 C6.36756608,0 4.23529412,0.984530513 4.23529412,2.20025095 C4.23529412,3.41464821 6.36756608,4.4 9.00044468,4.4 Z" id="Shape" stroke-opacity="0.503255208"></path>
                <path d="M13.1783402,5.5 L9.00004942,5.5 L4.82165979,5.5 C2.51229222,5.5 0,6.56791249 0,7.54986428 L0,14.3587412 C0,14.849507 0.935450038,15.2475479 2.09003498,15.2475479 C2.658481,15.2475479 2.09003498,15.2475479 3.54935285,15.2475479 L4.34405048,21.0543903 C4.34405048,21.5766247 5.34098085,22 6.56959919,22 C7.08812951,22 8.04404004,22 9.00004942,22 C9.95595996,22 10.9119693,22 11.4304008,22 C12.6590191,22 13.6559495,21.5766247 13.6559495,21.0543903 L14.4506471,15.2475479 C15.909965,15.2475479 15.341519,15.2475479 15.909965,15.2475479 C17.06455,15.2475479 18,14.849507 18,14.3587412 L18,7.54986428 C18,6.56791249 15.4876089,5.5 13.1783402,5.5 Z" id="Shape" stroke-opacity="0.5"></path>
            </g>
        </g>
    </g>
</svg>