<?xml version="1.0" encoding="UTF-8"?>
<svg width="25px" height="24px" viewBox="0 0 25 24" version="1.1" xmlns="http://www.w3.org/2000/svg" xmlns:xlink="http://www.w3.org/1999/xlink">
    <!-- Generator: Sketch 50.2 (55047) - http://www.bohemiancoding.com/sketch -->
    <title>Untitled 8</title>
    <desc>Created with Sketch.</desc>
    <defs></defs>
    <g id="Page-1" stroke="none" stroke-width="1" fill="none" fill-rule="evenodd">
        <g id="Group-3" transform="translate(1.000000, 1.000000)" fill="#FFFFFF" fill-rule="nonzero" stroke="#000000">
            <g id="本棚アイコン">
                <path d="M11.6838203,4.88967421 L11.4026992,5.24650226 C10.9108047,5.87499548 9.66705273,6.2811991 8.62495508,6.15422624 C7.58209375,6.02675566 7.13633398,5.41463801 7.62863281,4.78574661 L11.3334746,0.489972851 C11.4053945,0.406153846 11.4257891,0.282864253 11.3845957,0.176348416 C11.3437168,0.070678733 11.2491113,0.00109502262 11.144668,0.00109502262 L10.5479707,0.00109502262 C10.3731348,0.00109502262 10.2059355,0.0782443439 10.0836582,0.216615385 L6.86958789,3.8251629 C6.21008984,4.58993665 6.24072656,5.01465611 6.24072656,6.20444796 C6.24072656,7.05388688 6.24072656,19.9864027 6.24072656,19.9864027 C6.24072656,21.0064661 7.39782422,21.8487873 8.44028125,21.975362 C9.4827832,22.1032805 10.9108047,21.6961312 11.4026992,21.068086 L11.7300449,20.6463032 C11.671377,20.4358597 11.6362031,20.2161584 11.6362031,19.9864027 L11.6362031,6.05438009 C11.6357539,5.62169683 11.6357539,5.2460543 11.6838203,4.88967421 Z" id="Shape" stroke-opacity="0.5"></path>
                <path d="M5.39570117,6.05438009 C5.39529688,5.62169683 5.39529688,5.2460543 5.4434082,4.88967421 L5.16188281,5.24650226 C4.66998828,5.87499548 3.4265957,6.2811991 2.38413867,6.15422624 C1.34163672,6.02675566 0.895517578,5.41463801 1.38781641,4.78574661 L5.09301758,0.489972851 C5.16448828,0.406153846 5.18528711,0.282864253 5.14409375,0.176348416 C5.10321484,0.070678733 5.00860938,0.00109502262 4.90421094,0.00109502262 L4.30706445,0.00109502262 C4.13263281,0.00109502262 3.96579297,0.0782443439 3.84320117,0.216615385 L0.629130859,3.8251629 C-0.0304121094,4.58993665 0.000224609375,5.01465611 0.000224609375,6.20444796 C0.000224609375,7.05388688 0.000224609375,19.9864027 0.000224609375,19.9864027 C0.000224609375,21.0064661 1.15696289,21.8487873 2.19982422,21.975362 C3.24187695,22.1032805 4.66998828,21.6961312 5.16188281,21.068086 L5.48994727,20.6463032 C5.43091992,20.4358597 5.39570117,20.2161584 5.39570117,19.9864027 L5.39570117,6.05438009 Z" id="Shape" stroke-opacity="0.5018399"></path>
                <path d="M22.7393184,0.00109502262 L22.0933867,0.00109502262 C21.9049395,0.00109502262 21.7255664,0.0916832579 21.6014473,0.248868778 L17.670334,5.24645249 C17.1784395,5.8749457 15.9346426,6.28114932 14.8925898,6.15417647 C13.8497285,6.02670588 13.4040137,5.41458824 13.8962676,4.78569683 L17.6011094,0.489923077 C17.6730293,0.406104072 17.6934238,0.28281448 17.6525449,0.176298643 C17.6113066,0.0706289593 17.5167012,0.00104524887 17.4126621,0.00104524887 L16.8156055,0.00104524887 C16.6411738,0.00104524887 16.4738848,0.0781945701 16.351293,0.216565611 L13.1372227,3.82511312 C12.4776797,4.58988688 12.5083613,5.01460633 12.5083613,6.20439819 C12.5083613,7.0538371 12.5083613,19.9863529 12.5083613,19.9863529 C12.5083613,21.0064163 13.665459,21.8487376 14.707916,21.9753122 C15.7507324,22.1032308 17.1784395,21.6960814 17.670334,21.0680362 L22.5262539,14.8186425 C22.8319922,14.4245339 23,13.9231131 23,13.4040724 L23,0.2899819 C23,0.130656109 22.8830684,0.00109502262 22.7393184,0.00109502262 Z" id="Shape" stroke-opacity="0.5"></path>
            </g>
        </g>
    </g>
</svg>