<?xml version="1.0" encoding="UTF-8"?>
<svg width="25px" height="24px" viewBox="0 0 25 24" version="1.1" xmlns="http://www.w3.org/2000/svg" xmlns:xlink="http://www.w3.org/1999/xlink">
    <!-- Generator: Sketch 50.2 (55047) - http://www.bohemiancoding.com/sketch -->
    <title>Untitled 8</title>
    <desc>Created with Sketch.</desc>
    <defs></defs>
    <g id="Page-1" stroke="none" stroke-width="1" fill="none" fill-rule="evenodd" stroke-opacity="0.5">
        <g id="Group" transform="translate(3.000000, 1.000000)" fill-rule="nonzero" stroke="#000000">
            <g id="鍵・錠の無料アイコン素材-1">
                <path d="M20,19.6221119 L20,9.04192973 C20,8.28155297 19.2755629,7.66666667 18.3826825,7.66666667 L15.9421599,7.66666667 L13.3332985,7.66666667 L6.66675372,7.66666667 L4.05804898,7.66666667 L1.61731755,7.66666667 C0.721668869,7.66666667 0,8.28159746 0,9.04192973 L0,19.6221119 C0,20.3826666 0.721668869,21 1.61731755,21 L18.3826825,21 C19.2755107,21 20,20.3826666 20,19.6221119 Z M11.0266079,12.8640192 C10.7311342,13.2421908 10.5913486,13.7634 10.5913486,14.2871432 L10.5913486,15.8291012 C10.5913486,16.461892 9.92937252,16.9081747 9.40941832,16.1782633 L9.40941832,13.9961747 C9.40941832,13.5888189 9.2654796,13.2058416 9.0232508,12.926975 C8.73374053,12.5948515 8.55831633,12.1172002 8.5721955,11.5861172 C8.58206356,11.1934409 8.70019624,10.7691775 8.95239959,10.3594188 C9.16729601,10.1577068 9.38609705,10.0271642 9.60049652,9.95564543 C9.60521756,9.95411632 9.6100806,9.95241245 9.61490814,9.95083964 C9.90054928,9.85900546 10.1774583,9.87298593 10.4253665,9.96822785 C10.4270349,9.96888318 10.4287032,9.96958221 10.4305135,9.97028123 C10.8679736,10.1405808 11.2144914,10.5631403 11.3569038,11.0998592 C11.3570458,11.1000339 11.3570458,11.1003834 11.3570458,11.1003834 C11.3977959,11.2541249 11.4217916,11.4171284 11.4265126,11.5860735 C11.4285714,11.6055588 11.4285714,11.6274033 11.4285714,11.6468012 C11.4285714,12.1195594 11.2748002,12.5487597 11.0266079,12.8640192 Z" id="Shape"></path>
                <path d="M2.85714286,3.85200234 L2.85714286,6.65264904 L5.97337643,6.66666667 L5.9930283,3.85200234 C5.9930283,2.66060591 7.7873128,1.69112133 10,1.69112133 C12.2090456,1.69112133 14.0067833,2.66060591 14.0067833,3.85200234 L14.0067833,6.66666667 L17.1428571,6.66666667 L17.1428571,3.85200234 C17.1428571,1.72850165 13.9370914,0 10,0 C6.05920423,0 2.85714286,1.72850165 2.85714286,3.85200234 Z" id="Shape"></path>
            </g>
        </g>
    </g>
</svg>